<svg id="Layer_1" data-name="Layer 1" xmlns="http://www.w3.org/2000/svg" viewBox="0 0 1513.54533 851.36925"><defs><style>.cls-1{fill:#fa0614;}.cls-2{fill:#fafdfc;}.cls-3{fill:#e3dcd5;}.cls-4{fill:#b8a7a2;}.cls-5{fill:#312d2c;}.cls-6{fill:#fef2ef;}.cls-7{fill:#efeae6;}</style></defs><title>julehjælpen</title><path class="cls-1" d="M683.01034,385.40764c3.69409-3.93145,7.17687-8.08952,11.1145-11.75959,44.71829-41.67919,36.45913-114.39169-11.732-146.72908-32.11425-21.54946-66.69013-27.15834-103.08064-10.31127-2.50935,1.16163-5.08391,2.18213-8.68652,3.72009V149.87054H537.35739c-.4765,3.25173-1.33019,6.68526-1.42658,10.13991-.47481,17.01647-.71353,34.03943-1.13579,51.0576a49.22666,49.22666,0,0,1-1.05753,6.71064c.05216.5425.11057,1.08721.169,1.6319,6.108,4.74888,12.21588,9.49776,18.62365,14.47977-5.11482,5.38727-9.09791,9.58252-13.10822,13.80642,4.58576,4.55424,8.91334,8.85214,13.52178,13.429,4.3925-4.07536,8.67736-8.05075,13.35291-12.38872,18.87627,17.87572,37.48556,35.49862,56.09485,53.12149q4.61019,4.397,9.22048,8.7941,1.65775,1.58031,3.31541,3.16057c15.58515,14.72706,31.17031,29.45412,47.08266,44.49033-4.46045,4.17188-8.20067,7.6701-11.94078,11.16833q-.48228,2.42535-.96445,4.85071,2.23854,2.29086,4.47718,4.58175Q678.29619,382.156,683.01034,385.40764Z"/><path class="cls-2" d="M533.90647,219.41059c-.05841-.54469-.11682-1.0894-.169-1.6319-5.8635-.49091-11.51418.77589-16.63986-5.19707-2.89957-3.37879-10.35968-3.44547-15.8563-3.89475-31.62981-2.58535-60.84005,2.69388-83.58809,27.33988-5.66182,6.13416-11.02415,12.54459-16.52418,18.82808q-2.30829,3.09645-4.61676,6.19291l-.01531.02386q-3.75637,9.30723-7.51275,18.61447c-.58216,12.28443-1.8598,24.585-1.57477,36.84931.37586,16.17647,5.21925,31.19957,15.19163,44.26661q1.60275-3.44414,3.2054-6.87784c.23759-2.02749-.1893-4.50378.82561-6.00616,4.8605-7.19482,9.73791-14.45871,15.48942-20.9138,1.41581-1.58892,6.13219-.2369,9.33125-.2369l.1789,1.76083c-1.69952,1.20851-3.39894,2.417-5.38869,3.83188,9.90311,3.743,18.69293.83372,23.845-6.78083,3.13584-4.63465,7.08954-8.71585,10.97832-13.41065a39.40587,39.40587,0,0,1-1.66286-4.23562c-.064-.20576,1.87928-1.56125,2.324-1.32326,9.55258,5.111,15.15505-2.45919,21.5237-6.84763,5.5141-3.79961,9.95178-9.63152,15.88692-12.2444,9.92635-4.3701,19.22131-8.55242,24.08342-19.1671,2.52513-5.51274,7.36569-10.25982,8.741-15.93871,2.36579-9.76895,9.47159-19.818,1.10724-30.1724C532.71889,221.8052,533.59951,220.37614,533.90647,219.41059Z"/><path class="cls-3" d="M683.01034,385.40764q-4.71425-3.25167-9.42849-6.50346-3.065.68793-6.12992,1.37607l.0138-.01318c-5.83137,7.50589-11.62692,15.04042-17.55885,22.46593-.49937.625-1.921.4943-2.90325.75549-8.07809,2.14817-15.31355,5.46835-19.59113,13.30714-.7896,1.447-2.24378,3.102-3.71346,3.51543-10.03816,2.82342-20.03843,6.68521-30.289,7.63161-14.24222,1.3149-12.55942,1.28423-14.50636-10.44379-.18694-1.12648-1.008-2.14767-1.95791-4.07746-.81209,7.757-1.5088,14.41178-2.20664,21.06614-2.27271,1.61265-4.38418,4.23009-6.85006,4.623-4.67716.74529-9.55741.21572-15.12935.21572v36.56085l-.73829-.04224q-.90769-19.18609-1.81548-38.37209-1.88569-.08651-3.7714-.173l-.53879.17779-.5419-.16829q-1.73019-.02371-3.46047-.04744l-.64643.18-.64378-.189-9.00633-.15863q-.90585.15324-1.8117.30654a24.529,24.529,0,0,1-2.52249,2.47981c-6.02927-4.71013-11.53449.826-17.23157,1.13966-3.342.1841-6.94844,3.21726-9.61836,5.81053-2.66755,2.59106-4.316,6.23137-6.41126,9.41173q22.67049,22.44636,45.34118,44.89278c3.88367-4.40209,7.76744-8.80413,11.53534-13.07495,5.81719,5.09327,10.54831,9.23565,15.27952,13.378,2.70612-1.7953,5.80358-3.19784,8.05881-5.44555q42.44241-42.30007,84.63607-84.84923C667.12843,402.78621,674.96978,393.99826,683.01034,385.40764Z"/><path class="cls-4" d="M539.34261,501.13521q-22.67064-22.44636-45.3409-44.8934c-13.11815-12.91188-26.41274-25.65035-39.29783-38.79049-9.83563-10.03037-19.15223-20.56953-28.69981-30.88233q-6.87807-7.36393-13.756-14.72791-4.82355-5.51694-9.647-11.03382c-9.97238-13.07231-14.81577-28.09541-15.19163-44.27188-.285-12.26427.99261-24.56488,1.57364-36.84924q-.81159-1.43682-1.62089-2.87377c-9.4405,32.01117-6.25826,62.238,13.38248,89.81435a163.262,163.262,0,0,0,16.66887,19.212q61.99659,63.2276,124.21771,126.23489a21.80852,21.80852,0,0,1,3.08462,3.45282c3.60166,5.72339,6.83361,5.54836,9.867-.4311C545.44568,514.87063,543.0763,507.25833,539.34261,501.13521Z"/><path class="cls-5" d="M1004.52246,369.41133H1024.657v9.29786h-31.014V339.84805h30.76337v8.96289c-5.5399,0-10.91008-.21557-16.24065.14819-1.37121.0936-2.61794,2.01163-3.92186,3.09156,1.25912.90041,2.47353,2.49288,3.78529,2.57751,4.83064.31166,9.6934.12376,14.81389.12376v7.881c-5.99317.66039-12.16306,1.29742-18.294,2.19894C1004.34025,364.86258,1004.52246,367.55152,1004.52246,369.41133Z"/><path class="cls-1" d="M888.94212,315.04827c9.21425-2.21733,13.77861-9.85241,13.37927-19.262-.378-8.90674-5.60654-15.919-14.62629-17.52947-7.19222-1.28414-14.66234-1.0122-22.39472-1.45295v40.52429C873.71028,316.59875,881.56674,316.82311,888.94212,315.04827Zm-12.68894-29.89894c5.27581,2.32436,10.47285,3.16114,13.02033,6.211,1.92454,2.3041,2.00648,8.69105.12867,11.0031-2.51908,3.10146-7.7191,4.02555-13.149,6.51836Z"/><path class="cls-1" d="M811.22023,282.18606c-2.06078,2.495-3.82414,4.62993-5.75251,6.96463a61.13114,61.13114,0,0,0-7.24377-2.74638,10.24462,10.24462,0,0,0-12.61788,8.28178c-1.22689,6.26109,2.049,12.21981,7.90089,12.81983,2.80232.28735,5.825-1.5746,8.74786-2.46311-2.05379-1.65267-4.10752-3.30534-7.25309-5.83662v-5.21071H812.747c0,4.97461.12617,9.82337-.08076,14.65785a5.61668,5.61668,0,0,1-1.74077,3.93235,25.21061,25.21061,0,0,1-24.22032,3.17888c-7.86086-2.86309-12.53215-10.29725-12.5829-18.65283a20.54044,20.54044,0,0,1,13.03517-19.19342C794.34878,274.99556,802.88815,276.343,811.22023,282.18606Z"/><path class="cls-1" d="M859.51626,296.95352c.03851-11.85449-9.03-20.60457-21.25265-20.50652-12.05575.09676-21.1494,9.112-21.05187,20.87056.09554,11.51491,8.88021,19.8725,20.949,19.9305C850.62854,317.308,859.47747,308.89872,859.51626,296.95352Zm-31.25646.01557c-.04739-6.25582,4.77067-11.12,10.65279-10.75471a10.58394,10.58394,0,0,1,9.60683,11.09224c-.24515,6.153-4.49731,10.407-10.27367,10.27821C832.52335,307.45727,828.30526,302.97315,828.2598,296.96909Z"/><path class="cls-1" d="M953.88576,277.53672h10.83883c0,6.70945-.05278,13.31467.01668,19.91859.05562,5.2845,1.00182,10.24948,7.82641,9.97437,6.30324-.25413,6.99409-4.95836,6.956-9.97338-.04868-6.41469-.01187-12.83007-.01187-19.79516h10.71039c0,8.8244.67975,17.55291-.18268,26.12626-.94478,9.39176-8.12779,13.82177-19.35854,13.39543-9.86058-.37432-16.0842-5.48115-16.68706-14.69143C953.47343,294.539,953.88576,286.52559,953.88576,277.53672Z"/><path class="cls-5" d="M921.22252,378.85435c-5.99463-.27416-10.67637,1.92171-14.6486-4.75781-1.47237-2.476-11.736-2.62834-15.58359-.13151-6.3514,4.12181-5.52753,5.39135-13.60292,4.17806,5.09582-12.12872,9.94143-24.20451,15.38319-36.00539.77973-1.69085,4.49726-2.93177,6.7488-2.78193,2.20579.14677,5.35784,1.83327,6.22816,3.70966C911.03357,354.46227,915.78605,366.10656,921.22252,378.85435Z"/><path class="cls-5" d="M807.99569,340.19428v8.70086H797.051v29.65327h-11.353V349.53467l-11.57049-.80335v-8.537Z"/><path class="cls-5" d="M959.28859,339.7862h10.22935v29.4285h18.883v9.51724H959.28859Z"/><path class="cls-5" d="M954.17784,378.68856h-29.567v-38.6612h10.83244V369.1868h18.73461Z"/><path class="cls-1" d="M996.89465,316.2298V277.59749h10.59618v29.35942h18.59469v9.27289Z"/><path class="cls-1" d="M937.28688,277.59361h10.7317c0,9.43143.92432,18.51923-.40052,27.26637-.63651,4.20264-4.75456,9.50328-8.65477,11.22047-6.4949,2.85962-13.61431,1.63745-18.8853-5.173,2.90345-3.28977,4.38083-7.51525,10.34451-4.00325,4.04476,2.382,6.81188-.41869,6.84812-5.09062C937.33054,294.09225,937.28688,286.37013,937.28688,277.59361Z"/><path class="cls-5" d="M841.44576,339.94748V369.1442h18.84229c.18722,3.28682.3408,5.98336.52816,9.27325H831.07526v-38.47Z"/><path class="cls-1" d="M539.34261,501.13521c3.73369,6.12312,6.10307,13.73542,15.2403,13.96021q5.78808-6.83081,11.57466-13.65873c-4.73131-4.14078-9.46243-8.28316-15.27962-13.37643C547.11005,492.33108,543.22628,496.73312,539.34261,501.13521Z"/><path class="cls-5" d="M813.29258,339.81337h10.1941v38.74525h-10.1941Z"/><path class="cls-1" d="M1030.22833,306.10757h10.19721v10.13385h-10.19721Z"/><path class="cls-5" d="M1029.83083,368.21336h10.08882v10.4934h-10.08882Z"/><path class="cls-3" d="M387.36222,276.81237q.80988,1.43693,1.62089,2.87377,3.75807-9.30737,7.51388-18.61454Q391.9296,268.942,387.36222,276.81237Z"/><path class="cls-3" d="M396.5123,261.04774q2.30842-3.09648,4.61676-6.19291Q398.82077,257.95131,396.5123,261.04774Z"/><path class="cls-6" d="M533.90647,219.41059c-.307.96555-1.18758,2.39461-.83677,2.82881,8.36435,10.35442,1.25855,20.40345-1.10724,30.1724-1.37527,5.67889-6.21583,10.426-8.741,15.93871-4.86211,10.61468-14.15707,14.797-24.08342,19.1671-5.93514,2.61288-10.37282,8.44479-15.88692,12.2444-6.36865,4.38844-11.97112,11.95864-21.5237,6.84763-.44475-.238-2.388,1.1175-2.324,1.32326a39.40587,39.40587,0,0,0,1.66286,4.23562c-3.88878,4.6948-7.84248,8.776-10.97832,13.41065-5.152,7.61455-13.94187,10.52378-23.845,6.78083,1.98975-1.41486,3.68917-2.62337,5.38869-3.83188l-.1789-1.76083c-3.19906,0-7.91544-1.352-9.33125.2369-5.75151,6.45509-10.62892,13.719-15.48942,20.9138-1.01491,1.50238-.588,3.97867-.8259,6.00651,7.11336-1.52376,14.19411-3.2577,21.37-4.38657,1.3576-.21356,3.20039,1.85317,4.62546,3.0909,1.514,1.315,2.79751,2.89561,4.18166,4.36018,1.61749-1.64735,3.13309-3.41269,4.87514-4.91564,2.9249-2.52327,5.68233-5.58173,9.09555-7.09531,3.00391-1.3321,6.80867-1.09543,10.26025-1.09918a26.23126,26.23126,0,0,1,7.07915,1.238c4.44618,1.26817,8.808,2.82921,13.23855,4.15635,2.75913.82649,5.58,1.44669,8.37313,2.15944,13.75522,0,27.51054,0,42.194,0V309.99573h42.36771c.35865,6.35435.67525,11.96289.99175,17.57144.54758,3.09641.61477,6.38383,1.75264,9.24553,1.81359,4.56115-2.78437,11.262,4.6041,13.90341q2.25186.02672,4.50373.05342l19.50541-2.39058c-1.28681-2.15611-2.34019-3.92122-3.64023-6.09963,8.33534-2.2453,8.82148,3.80308,10.56948,8.35449l2.92594.28449.12919-.67069a48.55685,48.55685,0,0,0,4.31038-3.92937c5.1614-5.92878,17.37521-5.43753,14.795-17.56134h8.01373q-3.51013-7.49288-7.00061-14.9437-1.65775-1.58026-3.31522-3.16036c-6.34066.49441-7.67482-4.261-9.22077-8.79426-18.60919-17.62292-37.21848-35.24582-56.09475-53.12154-4.67555,4.338-8.96041,8.31336-13.35291,12.38872-4.60844-4.57684-8.936-8.87474-13.52178-13.429,4.01031-4.2239,7.9934-8.41915,13.10822-13.80642C546.12235,228.90835,540.01446,224.15947,533.90647,219.41059Zm-48.47532,123.29q.61893-.26846,1.23766-.53694c.178.41391.585.91662.46876,1.21654-.11426.29462-.76.38325-1.17246.56227C485.78669,343.52981,485.60816,343.11717,485.43115,342.70061Z"/><path class="cls-7" d="M667.452,380.28025q3.06473-.68806,6.12983-1.37607-2.23841-2.29066-4.4751-4.57995c-4.49731-.58131-9.00057-1.68308-13.495-1.648-12.42607.09706-24.84846.66873-37.02872,1.04525-.68688,7.40259-1.22547,13.20653-1.76511,19.0121l-.25847.4379q-1.04364.39178-2.08719.78365-1.39947.021-2.79883.04215-17.716.05674-35.432.11341l-.37141.07012q-.77869.67508-1.55748,1.35013l-.00793.02481q-.34306,10.10706-.68622,20.21411.033,9.33948.06625,18.67892a1.07787,1.07787,0,0,1,1.05564.03917c.69671-6.65476,1.39342-13.30952,2.20551-21.06654.9499,1.92979,1.771,2.951,1.95791,4.07746,1.94694,11.728.26414,11.75869,14.50636,10.44379,10.25061-.9464,20.25088-4.80819,30.289-7.63161,1.46968-.41338,2.92386-2.06841,3.71346-3.51543,4.27758-7.83879,11.513-11.159,19.59113-13.30714.98221-.26119,2.40388-.13049,2.90325-.75549,5.93193-7.42551,11.72748-14.96,17.55875-22.46588q-1.2251-.74779-2.45009-1.49574l.90131-.99691Q666.68434,379.02735,667.452,380.28025Zm-90.88119,22.59057,1.77607-.10353q.10476,2.18239.20942,4.36483l-1.74753.09079Q576.68986,405.04686,576.57083,402.87082Z"/><path class="cls-7" d="M634.92733,313.8132q3.49539,7.46136,7.00061,14.9437h-8.01373c2.58023,12.12381-9.63358,11.63256-14.795,17.56134a48.571,48.571,0,0,1-4.31094,3.92989c6.73173,2.209,4.48842,7.58625,4.22824,12.19229-.14762,2.61042-.61212,5.203-1.03107,8.58927,13.05927,0,25.03823.14932,37.01029-.07105,5.02522-.09252,10.03608-.96751,15.05346-1.48678,3.74011-3.49823,7.48033-6.99645,11.94078-11.16833C666.09764,343.26732,650.51248,328.54026,634.92733,313.8132Z"/><path class="cls-4" d="M670.06921,369.47186c-5.01738.51927-10.02824,1.39426-15.05346,1.48678-11.97206.22037-23.951.07105-37.01029.07105.41895-3.38628.88345-5.97885,1.03107-8.58927.26018-4.606,2.50349-9.98328-4.22824-12.19229l-.12693.67029c.66335,2.64755,1.83665,5.28318,1.8978,7.94448.25989,11.28553.18949,22.5787.23976,33.86908.5386-5.804,1.07719-11.6079,1.76407-19.01049,12.18026-.37652,24.60265-.94819,37.02872-1.04525,4.49447-.03509,8.99773,1.06668,13.495,1.648Q669.586,371.89636,670.06921,369.47186Z"/><path class="cls-7" d="M622.39144,301.85856c1.54585,4.53331,2.88,9.28869,9.22067,8.79428Q627.00164,306.25542,622.39144,301.85856Z"/><path class="cls-7" d="M488.90513,351.43268c-2.79315-.71275-5.614-1.33295-8.37313-2.15944-4.43059-1.32714-8.79237-2.88818-13.23855-4.15635a26.23126,26.23126,0,0,0-7.07915-1.238c-3.45158.00375-7.25634-.23292-10.26025,1.09918-3.41322,1.51358-6.17065,4.572-9.09555,7.09531-1.74205,1.50295-3.25765,3.26829-4.87514,4.91564-1.38415-1.46457-2.66765-3.04516-4.18166-4.36018-1.42507-1.23773-3.26786-3.30446-4.62546-3.0909-7.17592,1.12887-14.25667,2.86281-21.37,4.38657q-1.60232,3.43578-3.20511,6.87752,4.8234,5.52475,9.64936,11.03507c4.03517-4.18277,8.06788-8.36152,11.76953-12.19732,5.20347,4.672,9.88213,8.87275,14.78043,13.27063L426.00407,386.569c9.54758,10.3128,18.86418,20.852,28.69981,30.88233,12.88509,13.14014,26.17968,25.87861,39.29783,38.79049,2.09494-3.17974,3.74343-6.82,6.411-9.41111,2.66992-2.59327,6.27631-5.62643,9.61836-5.81053,5.69708-.31367,11.2023-5.84979,17.23157-1.13966a24.50944,24.50944,0,0,0,2.52145-2.47882q.02664-4.65648.05538-9.315-.00694-1.35545-.014-2.71091.00752-14.87586.01512-29.75174l.01134-.00612-1.36685-1.65132q-1.775-.08142-3.54988-.16279l-.71277.2644-.72751-.22067q-1.52465-.03409-3.04918-.06814-.86616-.00252-1.73222-.005l-4.58548.0769q-10.80117.06248-21.60242.12492-1.36912-.07284-2.73825-.14564-.85992-.7181-1.71975-1.43618Zm-73.87626,4.40268q1.00366-1.01394,2.00715-2.0279,1.83623,1.56486,3.67244,3.12969-1.06843,1.09223-2.1368,2.18441Q416.80022,357.47849,415.02887,355.83536Z"/><path class="cls-1" d="M488.90513,351.43266q-.41875,20.48086-.83761,40.96174.85977.71809,1.71984,1.43616,1.36912.07283,2.73513.1458,10.7996-.06241,21.60554-.12508,2.29269-.03841,4.582-.07641c.57621.00182,1.156.00316,1.73572.00449q1.52463.0341,3.04445.06837c.47849-.0145.9617-.02922,1.445-.04394q1.775.08141,3.54714.1626.682.82554,1.36959,1.65151l-.01162.00623q-.00765,14.87594-.01493,29.75163.00723,1.35544.014,2.71112.87849,4.50384,1.75746,9.00728,4.50317.07932,9.00075.15887c.42822.00309.862.006,1.29579.00881,1.15346.01578,2.307.03161,3.45423.04747l1.08693-.00955q1.88569.08655,3.76667.17255c3.271-.22283,6.57042-.27015,9.81673-.70944,4.57613-.61919,9.113-1.52873,13.66667-2.31408q-.03316-9.33946-.06616-18.67816.34307-10.10668.68613-20.21487l.00831-.02453q.77883-.67491,1.5571-1.35041l.36839-.06974q17.7144-.05653,35.435-.11379,1.39947-.02109,2.79968-.042,1.04406-.39175,2.08634-.78384l.25847-.4379c-.04923-11.292.02117-22.58516-.23872-33.87069-.06115-2.6613-1.23445-5.29693-1.8978-7.94448q-1.46552-.14243-2.928-.28461-13.21747.06788-26.43429.13572-2.25186-.02673-4.50449-.05349c-4.93752,1.22663-6.9801-.55254-6.64678-5.74962.37085-5.78218.21652-11.598.2908-17.39925-.3165-5.60855-.6331-11.21709-.99175-17.57144H531.09913v41.43693Z"/><path class="cls-4" d="M573.68458,434.44879c-4.55363.78535-9.09054,1.69489-13.66667,2.31408-3.24631.43929-6.54574.48661-9.81673.70941q.91493,19.1868,1.82021,38.37261l.73829.04224V439.32628c5.57194,0,10.45219.52957,15.12935-.21572,2.46588-.39291,4.57735-3.01035,6.85006-4.623A1.0766,1.0766,0,0,0,573.68458,434.44879Z"/><path class="cls-4" d="M531.59681,437.09416q-.87878-4.50356-1.75746-9.00728-.02806,4.65769-.05528,9.31481Q530.69148,437.24689,531.59681,437.09416Z"/><path class="cls-4" d="M546.43451,437.29976l-1.08693.00957c.00624,0,.54814.16822.54814.16822Z"/><path class="cls-4" d="M541.89335,437.26186c-.43379-.00285-.86757-.00574-1.29579-.00886.00558-.00023.64936.18881.64936.18881Z"/><path class="cls-1" d="M426.00407,386.569l12.79635-13.65859c-4.8983-4.39788-9.577-8.59867-14.78043-13.27063-3.70165,3.8358-7.73436,8.01455-11.76953,12.19732Q419.12486,379.207,426.00407,386.569Z"/><path class="cls-7" d="M876.25318,308.8818V285.14933c5.27581,2.32436,10.47285,3.16114,13.02033,6.211,1.92454,2.3041,2.00648,8.69105.12867,11.0031C886.8831,305.4649,881.68308,306.389,876.25318,308.8818Z"/><path class="cls-7" d="M838.24575,307.58483c-5.7224-.12756-9.94049-4.61168-9.986-10.61574-.04739-6.25582,4.77067-11.12,10.65279-10.75471a10.58394,10.58394,0,0,1,9.60683,11.09224C848.27427,303.45958,844.02211,307.7136,838.24575,307.58483Z"/><path class="cls-7" d="M585.31906,350.76953q13.21706-.06787,26.43429-.13572c-1.74763-4.55141-2.23377-10.59979-10.56911-8.35449,1.3,2.17841,2.35342,3.94352,3.64023,6.09963Z"/><path class="cls-7" d="M574.45859,327.56717c-.07428,5.8012.08005,11.61707-.2908,17.39925-.33332,5.19708,1.70926,6.97625,6.64678,5.74962-7.38771-2.64129-2.78975-9.34219-4.60334-13.90334C575.07336,333.951,575.00617,330.66358,574.45859,327.56717Z"/><path class="cls-7" d="M485.43039,342.70255q.26666.62193.53472,1.23993c.41243-.179,1.0582-.26765,1.17246-.56227.11624-.29992-.2908-.80263-.46876-1.21652Q486.05,342.43215,485.43039,342.70255Z"/><path class="cls-4" d="M574.30455,395.55576q-.34306,10.10781-.68613,20.21487Q573.96149,405.66243,574.30455,395.55576Z"/><path class="cls-4" d="M611.67339,393.99729q-17.71908.05706-35.435.11379Q593.95884,394.05384,611.67339,393.99729Z"/><path class="cls-3" d="M576.57083,402.87082q.11894,2.176.238,4.35209l1.74753-.09079q-.10476-2.18244-.20942-4.36483Z"/><path class="cls-3" d="M667.452,380.28025q-.76762-1.25291-1.53517-2.50578l-.90131.99691q1.2251.74793,2.45009,1.49576Z"/><path class="cls-4" d="M616.55941,393.17149q-1.04265.392-2.08634.78382Q615.51543,393.56319,616.55941,393.17149Z"/><path class="cls-4" d="M575.87,394.18082q-.77841.67532-1.5571,1.35041Q575.091,394.85575,575.87,394.18082Z"/><path class="cls-4" d="M529.82537,425.37576q.00736-14.87576.01493-29.75163Q529.83307,410.49983,529.82537,425.37576Z"/><path class="cls-4" d="M514.128,393.85128q-10.80442.06263-21.60554.12508Q503.32833,393.91369,514.128,393.85128Z"/><path class="cls-6" d="M415.02887,355.83536q1.77144,1.64312,3.54279,3.2862,1.06831-1.09219,2.1368-2.18441-1.83623-1.56481-3.67244-3.12969Q416.03249,354.8214,415.02887,355.83536Z"/><path class="cls-4" d="M524.93519,393.80379c-.48331.01472-.96652.02944-1.445.04394.00473-.00021.73224.22046.73224.22046Z"/><path class="cls-4" d="M520.44573,393.77936c-.57971-.00133-1.15951-.00267-1.73572-.00449C519.29095,393.77605,519.86829,393.7777,520.44573,393.77936Z"/><path class="cls-4" d="M489.78736,393.83058q-.85992-.71812-1.71984-1.43618Q488.92758,393.1125,489.78736,393.83058Z"/><path class="cls-4" d="M529.85192,395.6179q-.68611-.82587-1.36959-1.65151Q529.16987,394.79235,529.85192,395.6179Z"/></svg>